<?xml version="1.0" standalone="no"?>
<!DOCTYPE svg PUBLIC "-//W3C//DTD SVG 20010904//EN"
 "http://www.w3.org/TR/2001/REC-SVG-20010904/DTD/svg10.dtd">
<svg version="1.0" xmlns="http://www.w3.org/2000/svg"
 width="225.000000pt" height="225.000000pt" viewBox="0 0 225.000000 225.000000"
 preserveAspectRatio="xMidYMid meet">

<g transform="translate(0.000000,225.000000) scale(0.100000,-0.100000)"
fill="#000000" stroke="none">
<path d="M1034 1637 c-68 -62 -51 -168 33 -203 112 -47 217 77 153 181 -14 23
-28 34 -37 31 -8 -3 -12 -2 -9 3 8 12 -19 21 -65 21 -30 0 -47 -7 -75 -33z"/>
<path d="M832 1510 c-71 -33 -157 -110 -201 -179 -112 -176 -95 -422 41 -577
24 -27 33 -32 44 -23 20 16 18 26 -16 67 -41 51 -79 139 -91 211 -32 177 78
381 248 462 44 21 63 36 61 46 -5 26 -19 25 -86 -7z"/>
<path d="M1302 1463 c-8 -13 0 -26 39 -61 27 -24 65 -70 85 -103 28 -45 42
-59 60 -59 22 0 23 2 12 28 -24 55 -81 133 -127 172 -52 45 -56 47 -69 23z"/>
<path d="M957 1336 c-59 -22 -105 -57 -138 -106 -28 -41 -29 -46 -12 -57 23
-17 31 -16 38 6 10 31 76 90 121 107 32 12 62 15 108 12 53 -5 66 -3 71 10 3
8 1 20 -4 25 -16 16 -142 19 -184 3z"/>
<path d="M1174 1296 c-10 -26 4 -48 28 -44 17 2 23 10 23 28 0 18 -6 26 -23
28 -13 2 -25 -3 -28 -12z"/>
<path d="M1005 1055 l0 -115 83 0 c75 0 82 2 82 20 0 18 -7 20 -60 20 l-60 0
0 95 c0 92 -1 95 -22 95 -23 0 -23 -2 -23 -115z"/>
<path d="M1290 1055 c0 -108 1 -115 20 -115 17 0 19 8 22 81 l3 81 33 -46 c18
-25 37 -46 41 -46 4 0 23 21 42 48 l34 47 3 -82 c3 -75 5 -83 22 -83 19 0 20
7 20 115 l0 115 -24 0 c-18 0 -34 -13 -57 -45 -18 -25 -36 -45 -40 -45 -4 0
-22 20 -40 45 -22 31 -40 45 -56 45 -23 0 -23 -1 -23 -115z"/>
<path d="M1692 1160 c-12 -5 -27 -21 -32 -36 -15 -38 9 -71 62 -84 55 -13 72
-23 76 -44 7 -34 -81 -43 -108 -11 -13 16 -40 9 -40 -11 0 -44 127 -62 168
-24 46 43 9 120 -57 120 -36 0 -66 23 -58 44 7 18 66 23 83 6 11 -11 44 -3 44
11 0 31 -87 49 -138 29z"/>
<path d="M752 1118 c-27 -27 -3 -88 34 -88 26 0 56 39 48 63 -4 12 -12 25 -18
29 -17 12 -51 9 -64 -4z"/>
<path d="M803 1002 c-28 -4 -28 -12 -4 -60 50 -97 163 -159 274 -149 65 6 81
15 71 40 -5 14 -15 16 -60 11 -32 -4 -71 -2 -98 6 -55 15 -123 71 -145 119
-12 28 -21 35 -38 33z"/>
<path d="M1164 869 c-3 -6 1 -18 10 -27 15 -15 17 -15 32 0 19 19 11 38 -16
38 -10 0 -22 -5 -26 -11z"/>
<path d="M1411 820 c-54 -83 -156 -154 -264 -181 -58 -14 -186 -7 -244 13 -40
15 -41 14 -52 -8 -10 -22 -7 -24 55 -44 203 -62 432 19 549 195 20 30 33 60
30 65 -14 23 -43 7 -74 -40z"/>
<path d="M748 729 c-12 -6 -18 -22 -18 -45 0 -27 5 -37 25 -46 38 -17 75 3 75
40 0 48 -43 74 -82 51z"/>
</g>
</svg>
